<mxfile host="Electron" modified="2024-03-23T14:37:51.688Z" agent="Mozilla/5.0 (X11; Linux x86_64) AppleWebKit/537.36 (KHTML, like Gecko) draw.io/24.0.4 Chrome/120.0.6099.291 Electron/28.2.5 Safari/537.36" etag="OI4BA9SpBkt0DBQzwbKW" version="24.0.4" type="device">
  <diagram name="Page-1" id="TNX2I5jaefrdZezBdB8_">
    <mxGraphModel dx="1185" dy="724" grid="1" gridSize="10" guides="1" tooltips="1" connect="1" arrows="1" fold="1" page="1" pageScale="1" pageWidth="850" pageHeight="1100" math="0" shadow="0">
      <root>
        <mxCell id="0" />
        <mxCell id="1" parent="0" />
        <mxCell id="pzr3KvnOTl1eqgeA8TS8-88" style="edgeStyle=orthogonalEdgeStyle;rounded=0;orthogonalLoop=1;jettySize=auto;html=1;entryX=0.5;entryY=1;entryDx=0;entryDy=0;" parent="1" source="pzr3KvnOTl1eqgeA8TS8-85" target="pzr3KvnOTl1eqgeA8TS8-87" edge="1">
          <mxGeometry relative="1" as="geometry" />
        </mxCell>
        <mxCell id="pzr3KvnOTl1eqgeA8TS8-85" value="Domain" style="rounded=0;whiteSpace=wrap;html=1;" parent="1" vertex="1">
          <mxGeometry x="840" y="575" width="120" height="60" as="geometry" />
        </mxCell>
        <mxCell id="pzr3KvnOTl1eqgeA8TS8-84" style="edgeStyle=orthogonalEdgeStyle;rounded=0;orthogonalLoop=1;jettySize=auto;html=1;entryX=0.5;entryY=1;entryDx=0;entryDy=0;" parent="1" source="pzr3KvnOTl1eqgeA8TS8-78" target="pzr3KvnOTl1eqgeA8TS8-83" edge="1">
          <mxGeometry relative="1" as="geometry" />
        </mxCell>
        <mxCell id="pzr3KvnOTl1eqgeA8TS8-78" value="Any Domain" style="rounded=0;whiteSpace=wrap;html=1;" parent="1" vertex="1">
          <mxGeometry x="840" y="750" width="120" height="60" as="geometry" />
        </mxCell>
        <mxCell id="pzr3KvnOTl1eqgeA8TS8-1" value="Router" style="rounded=0;whiteSpace=wrap;html=1;" parent="1" vertex="1">
          <mxGeometry x="40" y="120" width="120" height="60" as="geometry" />
        </mxCell>
        <mxCell id="pzr3KvnOTl1eqgeA8TS8-2" value="Service" style="rounded=0;whiteSpace=wrap;html=1;" parent="1" vertex="1">
          <mxGeometry x="40" y="320" width="120" height="60" as="geometry" />
        </mxCell>
        <mxCell id="pzr3KvnOTl1eqgeA8TS8-3" value="Repository" style="rounded=0;whiteSpace=wrap;html=1;" parent="1" vertex="1">
          <mxGeometry x="40" y="610" width="120" height="60" as="geometry" />
        </mxCell>
        <mxCell id="pzr3KvnOTl1eqgeA8TS8-4" value="Domain / Model" style="rounded=0;whiteSpace=wrap;html=1;" parent="1" vertex="1">
          <mxGeometry x="40" y="780" width="120" height="60" as="geometry" />
        </mxCell>
        <mxCell id="pzr3KvnOTl1eqgeA8TS8-5" value="Database" style="rounded=0;whiteSpace=wrap;html=1;" parent="1" vertex="1">
          <mxGeometry x="40" y="950" width="120" height="60" as="geometry" />
        </mxCell>
        <mxCell id="pzr3KvnOTl1eqgeA8TS8-19" style="edgeStyle=orthogonalEdgeStyle;rounded=0;orthogonalLoop=1;jettySize=auto;html=1;entryX=0.5;entryY=0;entryDx=0;entryDy=0;" parent="1" source="pzr3KvnOTl1eqgeA8TS8-6" target="pzr3KvnOTl1eqgeA8TS8-8" edge="1">
          <mxGeometry relative="1" as="geometry" />
        </mxCell>
        <mxCell id="pzr3KvnOTl1eqgeA8TS8-6" value="REST" style="rounded=0;whiteSpace=wrap;html=1;" parent="1" vertex="1">
          <mxGeometry x="200" y="120" width="120" height="60" as="geometry" />
        </mxCell>
        <mxCell id="pzr3KvnOTl1eqgeA8TS8-20" style="edgeStyle=orthogonalEdgeStyle;rounded=0;orthogonalLoop=1;jettySize=auto;html=1;entryX=0.5;entryY=0;entryDx=0;entryDy=0;" parent="1" source="pzr3KvnOTl1eqgeA8TS8-7" target="pzr3KvnOTl1eqgeA8TS8-10" edge="1">
          <mxGeometry relative="1" as="geometry" />
        </mxCell>
        <mxCell id="pzr3KvnOTl1eqgeA8TS8-7" value="GQL" style="rounded=0;whiteSpace=wrap;html=1;" parent="1" vertex="1">
          <mxGeometry x="360" y="120" width="120" height="60" as="geometry" />
        </mxCell>
        <mxCell id="9CDml5k6_upd1ljEfVtV-1" style="edgeStyle=orthogonalEdgeStyle;rounded=0;orthogonalLoop=1;jettySize=auto;html=1;" edge="1" parent="1" source="pzr3KvnOTl1eqgeA8TS8-8" target="pzr3KvnOTl1eqgeA8TS8-9">
          <mxGeometry relative="1" as="geometry" />
        </mxCell>
        <mxCell id="pzr3KvnOTl1eqgeA8TS8-8" value="Pydantic models" style="rounded=0;whiteSpace=wrap;html=1;" parent="1" vertex="1">
          <mxGeometry x="200" y="260" width="120" height="60" as="geometry" />
        </mxCell>
        <mxCell id="pzr3KvnOTl1eqgeA8TS8-48" style="edgeStyle=orthogonalEdgeStyle;rounded=0;orthogonalLoop=1;jettySize=auto;html=1;" parent="1" source="pzr3KvnOTl1eqgeA8TS8-9" target="pzr3KvnOTl1eqgeA8TS8-47" edge="1">
          <mxGeometry relative="1" as="geometry" />
        </mxCell>
        <mxCell id="pzr3KvnOTl1eqgeA8TS8-51" style="edgeStyle=orthogonalEdgeStyle;rounded=0;orthogonalLoop=1;jettySize=auto;html=1;" parent="1" source="pzr3KvnOTl1eqgeA8TS8-9" target="pzr3KvnOTl1eqgeA8TS8-50" edge="1">
          <mxGeometry relative="1" as="geometry" />
        </mxCell>
        <mxCell id="pzr3KvnOTl1eqgeA8TS8-9" value="Any Service" style="rounded=0;whiteSpace=wrap;html=1;" parent="1" vertex="1">
          <mxGeometry x="280" y="420" width="120" height="60" as="geometry" />
        </mxCell>
        <mxCell id="9CDml5k6_upd1ljEfVtV-2" style="edgeStyle=orthogonalEdgeStyle;rounded=0;orthogonalLoop=1;jettySize=auto;html=1;entryX=0.5;entryY=0;entryDx=0;entryDy=0;" edge="1" parent="1" source="pzr3KvnOTl1eqgeA8TS8-10" target="pzr3KvnOTl1eqgeA8TS8-9">
          <mxGeometry relative="1" as="geometry" />
        </mxCell>
        <mxCell id="pzr3KvnOTl1eqgeA8TS8-10" value="Strawberry input" style="rounded=0;whiteSpace=wrap;html=1;" parent="1" vertex="1">
          <mxGeometry x="360" y="260" width="120" height="60" as="geometry" />
        </mxCell>
        <mxCell id="pzr3KvnOTl1eqgeA8TS8-12" value="Layers" style="text;html=1;align=center;verticalAlign=middle;whiteSpace=wrap;rounded=0;" parent="1" vertex="1">
          <mxGeometry x="20" y="70" width="60" height="30" as="geometry" />
        </mxCell>
        <mxCell id="pzr3KvnOTl1eqgeA8TS8-13" value="Realization" style="text;html=1;align=center;verticalAlign=middle;whiteSpace=wrap;rounded=0;" parent="1" vertex="1">
          <mxGeometry x="200" y="70" width="60" height="30" as="geometry" />
        </mxCell>
        <mxCell id="pzr3KvnOTl1eqgeA8TS8-21" style="edgeStyle=orthogonalEdgeStyle;rounded=0;orthogonalLoop=1;jettySize=auto;html=1;entryX=0.5;entryY=0;entryDx=0;entryDy=0;" parent="1" source="pzr3KvnOTl1eqgeA8TS8-15" target="pzr3KvnOTl1eqgeA8TS8-16" edge="1">
          <mxGeometry relative="1" as="geometry" />
        </mxCell>
        <mxCell id="pzr3KvnOTl1eqgeA8TS8-15" value="MQTT" style="rounded=0;whiteSpace=wrap;html=1;" parent="1" vertex="1">
          <mxGeometry x="520" y="120" width="120" height="60" as="geometry" />
        </mxCell>
        <mxCell id="pzr3KvnOTl1eqgeA8TS8-16" value="Topics + JSON" style="rounded=0;whiteSpace=wrap;html=1;" parent="1" vertex="1">
          <mxGeometry x="520" y="260" width="120" height="60" as="geometry" />
        </mxCell>
        <mxCell id="pzr3KvnOTl1eqgeA8TS8-18" value="layer boundary" style="text;html=1;align=center;verticalAlign=middle;whiteSpace=wrap;rounded=0;" parent="1" vertex="1">
          <mxGeometry x="20" y="280" width="100" height="10" as="geometry" />
        </mxCell>
        <mxCell id="pzr3KvnOTl1eqgeA8TS8-101" style="edgeStyle=orthogonalEdgeStyle;rounded=0;orthogonalLoop=1;jettySize=auto;html=1;entryX=0.5;entryY=0;entryDx=0;entryDy=0;" parent="1" source="pzr3KvnOTl1eqgeA8TS8-26" target="pzr3KvnOTl1eqgeA8TS8-40" edge="1">
          <mxGeometry relative="1" as="geometry" />
        </mxCell>
        <mxCell id="pzr3KvnOTl1eqgeA8TS8-26" value="JWT Auth Token" style="rounded=0;whiteSpace=wrap;html=1;" parent="1" vertex="1">
          <mxGeometry x="680" y="260" width="120" height="60" as="geometry" />
        </mxCell>
        <mxCell id="pzr3KvnOTl1eqgeA8TS8-34" value="" style="endArrow=none;html=1;rounded=0;" parent="1" edge="1">
          <mxGeometry width="50" height="50" relative="1" as="geometry">
            <mxPoint x="180" y="60" as="sourcePoint" />
            <mxPoint x="180" y="1030" as="targetPoint" />
          </mxGeometry>
        </mxCell>
        <mxCell id="pzr3KvnOTl1eqgeA8TS8-35" value="" style="endArrow=none;html=1;rounded=0;" parent="1" edge="1">
          <mxGeometry width="50" height="50" relative="1" as="geometry">
            <mxPoint x="20" y="100" as="sourcePoint" />
            <mxPoint x="1140" y="100" as="targetPoint" />
          </mxGeometry>
        </mxCell>
        <mxCell id="pzr3KvnOTl1eqgeA8TS8-44" style="edgeStyle=orthogonalEdgeStyle;rounded=0;orthogonalLoop=1;jettySize=auto;html=1;entryX=0.5;entryY=0;entryDx=0;entryDy=0;" parent="1" source="pzr3KvnOTl1eqgeA8TS8-40" target="pzr3KvnOTl1eqgeA8TS8-41" edge="1">
          <mxGeometry relative="1" as="geometry" />
        </mxCell>
        <mxCell id="pzr3KvnOTl1eqgeA8TS8-40" value="Auth" style="rounded=0;whiteSpace=wrap;html=1;" parent="1" vertex="1">
          <mxGeometry x="680" y="340" width="120" height="60" as="geometry" />
        </mxCell>
        <mxCell id="pzr3KvnOTl1eqgeA8TS8-45" style="edgeStyle=orthogonalEdgeStyle;rounded=0;orthogonalLoop=1;jettySize=auto;html=1;entryX=0.75;entryY=0;entryDx=0;entryDy=0;" parent="1" source="pzr3KvnOTl1eqgeA8TS8-41" target="pzr3KvnOTl1eqgeA8TS8-9" edge="1">
          <mxGeometry relative="1" as="geometry" />
        </mxCell>
        <mxCell id="pzr3KvnOTl1eqgeA8TS8-46" value="When fail - generate error" style="edgeLabel;html=1;align=center;verticalAlign=middle;resizable=0;points=[];" parent="pzr3KvnOTl1eqgeA8TS8-45" vertex="1" connectable="0">
          <mxGeometry x="0.1266" y="-1" relative="1" as="geometry">
            <mxPoint x="24" y="31" as="offset" />
          </mxGeometry>
        </mxCell>
        <mxCell id="pzr3KvnOTl1eqgeA8TS8-41" value="Check access" style="rounded=0;whiteSpace=wrap;html=1;" parent="1" vertex="1">
          <mxGeometry x="680" y="420" width="120" height="60" as="geometry" />
        </mxCell>
        <mxCell id="pzr3KvnOTl1eqgeA8TS8-55" style="edgeStyle=orthogonalEdgeStyle;rounded=0;orthogonalLoop=1;jettySize=auto;html=1;" parent="1" source="pzr3KvnOTl1eqgeA8TS8-47" target="pzr3KvnOTl1eqgeA8TS8-54" edge="1">
          <mxGeometry relative="1" as="geometry" />
        </mxCell>
        <mxCell id="pzr3KvnOTl1eqgeA8TS8-47" value="&lt;font style=&quot;font-size: 11px;&quot;&gt;Filters model -&lt;br&gt;Pydantic or Strawberry&lt;/font&gt;" style="rounded=0;whiteSpace=wrap;html=1;" parent="1" vertex="1">
          <mxGeometry x="200" y="540" width="120" height="60" as="geometry" />
        </mxCell>
        <mxCell id="pzr3KvnOTl1eqgeA8TS8-56" style="edgeStyle=orthogonalEdgeStyle;rounded=0;orthogonalLoop=1;jettySize=auto;html=1;" parent="1" source="pzr3KvnOTl1eqgeA8TS8-50" target="pzr3KvnOTl1eqgeA8TS8-54" edge="1">
          <mxGeometry relative="1" as="geometry" />
        </mxCell>
        <mxCell id="pzr3KvnOTl1eqgeA8TS8-50" value="Gen Not full Domain" style="rounded=0;whiteSpace=wrap;html=1;" parent="1" vertex="1">
          <mxGeometry x="360" y="540" width="120" height="60" as="geometry" />
        </mxCell>
        <mxCell id="pzr3KvnOTl1eqgeA8TS8-60" style="edgeStyle=orthogonalEdgeStyle;rounded=0;orthogonalLoop=1;jettySize=auto;html=1;entryX=0.5;entryY=0;entryDx=0;entryDy=0;" parent="1" source="pzr3KvnOTl1eqgeA8TS8-54" target="pzr3KvnOTl1eqgeA8TS8-59" edge="1">
          <mxGeometry relative="1" as="geometry" />
        </mxCell>
        <mxCell id="pzr3KvnOTl1eqgeA8TS8-54" value="Any Repository" style="rounded=0;whiteSpace=wrap;html=1;" parent="1" vertex="1">
          <mxGeometry x="280" y="640" width="120" height="60" as="geometry" />
        </mxCell>
        <mxCell id="pzr3KvnOTl1eqgeA8TS8-57" value="layer boundary" style="text;html=1;align=center;verticalAlign=middle;whiteSpace=wrap;rounded=0;" parent="1" vertex="1">
          <mxGeometry x="20" y="565" width="100" height="10" as="geometry" />
        </mxCell>
        <mxCell id="pzr3KvnOTl1eqgeA8TS8-64" style="edgeStyle=orthogonalEdgeStyle;rounded=0;orthogonalLoop=1;jettySize=auto;html=1;entryX=0.5;entryY=0;entryDx=0;entryDy=0;" parent="1" source="pzr3KvnOTl1eqgeA8TS8-58" target="pzr3KvnOTl1eqgeA8TS8-63" edge="1">
          <mxGeometry relative="1" as="geometry" />
        </mxCell>
        <mxCell id="pzr3KvnOTl1eqgeA8TS8-58" value="Any Domain" style="rounded=0;whiteSpace=wrap;html=1;" parent="1" vertex="1">
          <mxGeometry x="280" y="800" width="120" height="60" as="geometry" />
        </mxCell>
        <mxCell id="pzr3KvnOTl1eqgeA8TS8-71" style="edgeStyle=orthogonalEdgeStyle;rounded=0;orthogonalLoop=1;jettySize=auto;html=1;entryX=0.5;entryY=0;entryDx=0;entryDy=0;" parent="1" source="pzr3KvnOTl1eqgeA8TS8-59" target="pzr3KvnOTl1eqgeA8TS8-58" edge="1">
          <mxGeometry relative="1" as="geometry" />
        </mxCell>
        <mxCell id="pzr3KvnOTl1eqgeA8TS8-59" value="Sqlalchemy Queries" style="rounded=0;whiteSpace=wrap;html=1;" parent="1" vertex="1">
          <mxGeometry x="280" y="720" width="120" height="60" as="geometry" />
        </mxCell>
        <mxCell id="pzr3KvnOTl1eqgeA8TS8-61" value="" style="endArrow=none;html=1;rounded=0;fillColor=#fa6800;strokeColor=#C73500;" parent="1" edge="1">
          <mxGeometry width="50" height="50" relative="1" as="geometry">
            <mxPoint x="20" y="760" as="sourcePoint" />
            <mxPoint x="1140" y="760" as="targetPoint" />
          </mxGeometry>
        </mxCell>
        <mxCell id="pzr3KvnOTl1eqgeA8TS8-62" value="layer boundary" style="text;html=1;align=center;verticalAlign=middle;whiteSpace=wrap;rounded=0;" parent="1" vertex="1">
          <mxGeometry x="20" y="735" width="100" height="10" as="geometry" />
        </mxCell>
        <mxCell id="pzr3KvnOTl1eqgeA8TS8-73" style="edgeStyle=orthogonalEdgeStyle;rounded=0;orthogonalLoop=1;jettySize=auto;html=1;entryX=0.5;entryY=0;entryDx=0;entryDy=0;" parent="1" source="pzr3KvnOTl1eqgeA8TS8-63" target="pzr3KvnOTl1eqgeA8TS8-69" edge="1">
          <mxGeometry relative="1" as="geometry" />
        </mxCell>
        <mxCell id="pzr3KvnOTl1eqgeA8TS8-63" value="Sqlalchemy gen sql query" style="rounded=0;whiteSpace=wrap;html=1;" parent="1" vertex="1">
          <mxGeometry x="280" y="880" width="120" height="60" as="geometry" />
        </mxCell>
        <mxCell id="pzr3KvnOTl1eqgeA8TS8-67" value="layer boundary" style="text;html=1;align=center;verticalAlign=middle;whiteSpace=wrap;rounded=0;" parent="1" vertex="1">
          <mxGeometry x="20" y="905" width="100" height="10" as="geometry" />
        </mxCell>
        <mxCell id="pzr3KvnOTl1eqgeA8TS8-89" style="edgeStyle=orthogonalEdgeStyle;rounded=0;orthogonalLoop=1;jettySize=auto;html=1;entryX=0.5;entryY=1;entryDx=0;entryDy=0;" parent="1" source="pzr3KvnOTl1eqgeA8TS8-69" target="pzr3KvnOTl1eqgeA8TS8-74" edge="1">
          <mxGeometry relative="1" as="geometry">
            <Array as="points">
              <mxPoint x="900" y="990" />
            </Array>
          </mxGeometry>
        </mxCell>
        <mxCell id="pzr3KvnOTl1eqgeA8TS8-69" value="Any Database" style="rounded=0;whiteSpace=wrap;html=1;" parent="1" vertex="1">
          <mxGeometry x="280" y="960" width="120" height="60" as="geometry" />
        </mxCell>
        <mxCell id="pzr3KvnOTl1eqgeA8TS8-80" style="edgeStyle=orthogonalEdgeStyle;rounded=0;orthogonalLoop=1;jettySize=auto;html=1;entryX=0.5;entryY=1;entryDx=0;entryDy=0;" parent="1" source="pzr3KvnOTl1eqgeA8TS8-74" target="pzr3KvnOTl1eqgeA8TS8-79" edge="1">
          <mxGeometry relative="1" as="geometry" />
        </mxCell>
        <mxCell id="pzr3KvnOTl1eqgeA8TS8-74" value="Gen Sql Response" style="rounded=0;whiteSpace=wrap;html=1;" parent="1" vertex="1">
          <mxGeometry x="840" y="915" width="120" height="60" as="geometry" />
        </mxCell>
        <mxCell id="pzr3KvnOTl1eqgeA8TS8-76" value="" style="endArrow=none;html=1;rounded=0;fillColor=#e3c800;strokeColor=#B09500;" parent="1" edge="1">
          <mxGeometry width="50" height="50" relative="1" as="geometry">
            <mxPoint x="820" y="60" as="sourcePoint" />
            <mxPoint x="820" y="1030" as="targetPoint" />
          </mxGeometry>
        </mxCell>
        <mxCell id="pzr3KvnOTl1eqgeA8TS8-77" value="Boundary Input Output CA" style="text;html=1;align=center;verticalAlign=middle;whiteSpace=wrap;rounded=0;" parent="1" vertex="1">
          <mxGeometry x="760" y="30" width="120" height="30" as="geometry" />
        </mxCell>
        <mxCell id="pzr3KvnOTl1eqgeA8TS8-66" value="" style="endArrow=none;html=1;rounded=0;fillColor=#fa6800;strokeColor=#C73500;" parent="1" edge="1">
          <mxGeometry width="50" height="50" relative="1" as="geometry">
            <mxPoint x="20" y="930" as="sourcePoint" />
            <mxPoint x="1140" y="930" as="targetPoint" />
          </mxGeometry>
        </mxCell>
        <mxCell id="pzr3KvnOTl1eqgeA8TS8-81" style="edgeStyle=orthogonalEdgeStyle;rounded=0;orthogonalLoop=1;jettySize=auto;html=1;entryX=0.5;entryY=1;entryDx=0;entryDy=0;" parent="1" source="pzr3KvnOTl1eqgeA8TS8-79" target="pzr3KvnOTl1eqgeA8TS8-78" edge="1">
          <mxGeometry relative="1" as="geometry" />
        </mxCell>
        <mxCell id="pzr3KvnOTl1eqgeA8TS8-79" value="Sqlalchemy serialize response to Domain" style="rounded=0;whiteSpace=wrap;html=1;" parent="1" vertex="1">
          <mxGeometry x="840" y="830" width="120" height="60" as="geometry" />
        </mxCell>
        <mxCell id="pzr3KvnOTl1eqgeA8TS8-86" style="edgeStyle=orthogonalEdgeStyle;rounded=0;orthogonalLoop=1;jettySize=auto;html=1;entryX=0.5;entryY=1;entryDx=0;entryDy=0;" parent="1" source="pzr3KvnOTl1eqgeA8TS8-83" target="pzr3KvnOTl1eqgeA8TS8-85" edge="1">
          <mxGeometry relative="1" as="geometry" />
        </mxCell>
        <mxCell id="pzr3KvnOTl1eqgeA8TS8-83" value="Any Repository" style="rounded=0;whiteSpace=wrap;html=1;" parent="1" vertex="1">
          <mxGeometry x="840" y="670" width="120" height="60" as="geometry" />
        </mxCell>
        <mxCell id="pzr3KvnOTl1eqgeA8TS8-52" value="" style="endArrow=none;html=1;rounded=0;fillColor=#fa6800;strokeColor=#C73500;" parent="1" edge="1">
          <mxGeometry width="50" height="50" relative="1" as="geometry">
            <mxPoint x="20" y="590" as="sourcePoint" />
            <mxPoint x="1140" y="590" as="targetPoint" />
          </mxGeometry>
        </mxCell>
        <mxCell id="pzr3KvnOTl1eqgeA8TS8-96" style="edgeStyle=orthogonalEdgeStyle;rounded=0;orthogonalLoop=1;jettySize=auto;html=1;entryX=0.5;entryY=1;entryDx=0;entryDy=0;" parent="1" source="pzr3KvnOTl1eqgeA8TS8-87" target="pzr3KvnOTl1eqgeA8TS8-90" edge="1">
          <mxGeometry relative="1" as="geometry" />
        </mxCell>
        <mxCell id="pzr3KvnOTl1eqgeA8TS8-87" value="Any Service" style="rounded=0;whiteSpace=wrap;html=1;" parent="1" vertex="1">
          <mxGeometry x="840" y="490" width="120" height="60" as="geometry" />
        </mxCell>
        <mxCell id="pzr3KvnOTl1eqgeA8TS8-97" style="edgeStyle=orthogonalEdgeStyle;rounded=0;orthogonalLoop=1;jettySize=auto;html=1;entryX=0.5;entryY=1;entryDx=0;entryDy=0;" parent="1" source="pzr3KvnOTl1eqgeA8TS8-90" target="pzr3KvnOTl1eqgeA8TS8-94" edge="1">
          <mxGeometry relative="1" as="geometry" />
        </mxCell>
        <mxCell id="pzr3KvnOTl1eqgeA8TS8-98" style="edgeStyle=orthogonalEdgeStyle;rounded=0;orthogonalLoop=1;jettySize=auto;html=1;" parent="1" source="pzr3KvnOTl1eqgeA8TS8-90" target="pzr3KvnOTl1eqgeA8TS8-95" edge="1">
          <mxGeometry relative="1" as="geometry">
            <Array as="points">
              <mxPoint x="900" y="280" />
              <mxPoint x="1060" y="280" />
            </Array>
          </mxGeometry>
        </mxCell>
        <mxCell id="pzr3KvnOTl1eqgeA8TS8-90" value="Domain" style="rounded=0;whiteSpace=wrap;html=1;" parent="1" vertex="1">
          <mxGeometry x="840" y="290" width="120" height="60" as="geometry" />
        </mxCell>
        <mxCell id="pzr3KvnOTl1eqgeA8TS8-17" value="" style="endArrow=none;html=1;rounded=0;fillColor=#fa6800;strokeColor=#C73500;" parent="1" edge="1">
          <mxGeometry width="50" height="50" relative="1" as="geometry">
            <mxPoint x="20" y="300" as="sourcePoint" />
            <mxPoint x="1140" y="300" as="targetPoint" />
          </mxGeometry>
        </mxCell>
        <mxCell id="pzr3KvnOTl1eqgeA8TS8-92" value="REST" style="rounded=0;whiteSpace=wrap;html=1;" parent="1" vertex="1">
          <mxGeometry x="840" y="120" width="120" height="60" as="geometry" />
        </mxCell>
        <mxCell id="pzr3KvnOTl1eqgeA8TS8-93" value="GQL" style="rounded=0;whiteSpace=wrap;html=1;" parent="1" vertex="1">
          <mxGeometry x="1000" y="120" width="120" height="60" as="geometry" />
        </mxCell>
        <mxCell id="pzr3KvnOTl1eqgeA8TS8-99" style="edgeStyle=orthogonalEdgeStyle;rounded=0;orthogonalLoop=1;jettySize=auto;html=1;entryX=0.5;entryY=1;entryDx=0;entryDy=0;" parent="1" source="pzr3KvnOTl1eqgeA8TS8-94" target="pzr3KvnOTl1eqgeA8TS8-92" edge="1">
          <mxGeometry relative="1" as="geometry" />
        </mxCell>
        <mxCell id="pzr3KvnOTl1eqgeA8TS8-94" value="Pydantic models" style="rounded=0;whiteSpace=wrap;html=1;" parent="1" vertex="1">
          <mxGeometry x="840" y="200" width="120" height="60" as="geometry" />
        </mxCell>
        <mxCell id="pzr3KvnOTl1eqgeA8TS8-100" style="edgeStyle=orthogonalEdgeStyle;rounded=0;orthogonalLoop=1;jettySize=auto;html=1;" parent="1" source="pzr3KvnOTl1eqgeA8TS8-95" target="pzr3KvnOTl1eqgeA8TS8-93" edge="1">
          <mxGeometry relative="1" as="geometry" />
        </mxCell>
        <mxCell id="pzr3KvnOTl1eqgeA8TS8-95" value="Strawberry response" style="rounded=0;whiteSpace=wrap;html=1;" parent="1" vertex="1">
          <mxGeometry x="1000" y="200" width="120" height="60" as="geometry" />
        </mxCell>
      </root>
    </mxGraphModel>
  </diagram>
</mxfile>
